<svg width="192" height="128" viewBox="0 0 192 128" fill="none" xmlns="http://www.w3.org/2000/svg">
<path d="M96.8621 43.4312C96.77 42.9313 96.3751 42.5723 95.9169 42.5723H88.7947C86.7508 36.4075 81.4228 32 75.1875 32C67.192 32 60.6872 39.2463 60.6872 48.1531C60.6872 52.302 62.0695 56.1801 64.594 59.1796C61.3193 63.6635 56.3547 66.3165 51.1505 66.3165C44.4798 66.3165 38.3292 61.9708 35.4814 55.2449C35.3242 54.8738 34.9911 54.6348 34.6226 54.6289C34.2493 54.6164 33.9149 54.8511 33.7483 55.2171C31.6993 59.7153 30.6605 64.5691 30.6605 69.6445C30.6605 73.6926 31.3299 77.6242 32.6489 81.3473C29.7588 82.5745 27.1875 84.661 25.207 87.461C24.8772 87.9275 24.9492 88.6032 25.3677 88.9706C25.5445 89.126 25.7551 89.2012 25.9642 89.2012C26.2496 89.2012 26.5323 89.0607 26.7227 88.7916C29.6717 84.6221 34.0924 82.2314 38.8525 82.2314C38.8537 82.2314 38.8551 82.2314 38.8567 82.2314C43.5772 82.2314 47.9773 84.5934 50.9279 88.7111L50.9282 88.7115C54.2432 93.3435 59.1937 96 64.5102 96C69.8608 96 74.8347 93.3112 78.1567 88.6233C78.157 88.6228 78.1573 88.6224 78.1577 88.6218C81.1065 84.4523 85.5273 82.0616 90.2873 82.0616C90.2878 82.0616 90.2889 82.0616 90.2894 82.0616C90.8222 82.0616 91.2542 81.5805 91.2542 80.987C91.2544 80.3933 90.8224 79.912 90.2896 79.912C90.2887 79.912 90.2884 79.912 90.2873 79.912C88.9262 79.912 87.5901 80.0867 86.2991 80.4228C87.411 76.9752 87.9756 73.3592 87.9756 69.6447C87.9756 65.8539 87.3853 62.1513 86.2218 58.6287C87.3439 57.1637 88.2093 55.5044 88.7954 53.7276C91.7731 53.6551 93.9968 52.6483 95.4036 50.727C97.6171 47.7046 96.894 43.6044 96.8621 43.4312ZM75.1875 34.1498C82.1189 34.1498 87.7579 40.4317 87.7579 48.1533C87.7579 51.6949 86.5677 55.0752 84.4067 57.6716C82.0341 60.5219 78.6738 62.1568 75.1875 62.1568C71.955 62.1568 68.8836 60.7928 66.5391 58.3157C64.0099 55.6433 62.6169 52.0343 62.6169 48.1533C62.6169 40.4317 68.2561 34.1498 75.1875 34.1498ZM76.6426 87.291L76.6424 87.2914C73.6887 91.4594 69.267 93.8502 64.5107 93.8502C59.7849 93.8502 55.3843 91.4888 52.4376 87.3713L52.4374 87.3709C49.1181 82.7383 44.1688 80.0816 38.8574 80.0816C38.8558 80.0816 38.8544 80.0816 38.8526 80.0816C37.36 80.0816 35.897 80.2911 34.4912 80.6942C33.2295 77.1831 32.5905 73.4696 32.5905 69.6445C32.5905 65.622 33.2897 61.7492 34.6718 58.1032C38.129 64.462 44.4001 68.4661 51.1507 68.4661C56.8885 68.4661 62.3657 65.5665 66.0056 60.6556C68.5919 63.0178 71.8136 64.3064 75.1877 64.3064C78.6926 64.3064 82.0868 62.8744 84.7126 60.3298C85.5985 63.3248 86.0467 66.4504 86.0467 69.6443C86.0467 73.6681 85.338 77.5675 83.9429 81.2387C81.1104 82.4735 78.5905 84.5369 76.6426 87.291ZM93.9091 49.368C92.9653 50.657 91.4379 51.3891 89.3615 51.5505C89.5744 50.4432 89.6876 49.3063 89.6876 48.1533C89.6876 46.9759 89.5709 45.8286 89.355 44.722H95.0593C95.118 45.8415 95.0303 47.8365 93.9091 49.368Z" fill="#58A6FF"/>
<path d="M78.1435 48.015C80.048 48.015 81.5975 46.2889 81.5975 44.1672C81.5975 42.0455 80.048 40.3194 78.1435 40.3194C76.2389 40.3194 74.6895 42.0455 74.6895 44.1672C74.6895 46.2889 76.2389 48.015 78.1435 48.015ZM78.1435 42.4688C78.9841 42.4688 79.6679 43.2307 79.6679 44.167C79.6679 45.1034 78.9841 45.8652 78.1435 45.8652C77.3029 45.8652 76.6191 45.1034 76.6191 44.167C76.6191 43.2307 77.3029 42.4688 78.1435 42.4688Z" fill="#58A6FF"/>
<path d="M103.844 66.2216H105.991L106.767 67.196L108.08 68.6875L109.79 70.7557H107.344L106.131 69.3438L105.315 68.1705L103.844 66.2216ZM109.77 64.9091C109.77 66.0426 109.549 66.9988 109.109 67.7777C108.668 68.5533 108.073 69.1416 107.324 69.5426C106.575 69.9403 105.74 70.1392 104.818 70.1392C103.89 70.1392 103.052 69.9387 102.303 69.5376C101.557 69.1333 100.964 68.5433 100.523 67.7678C100.085 66.9889 99.8665 66.036 99.8665 64.9091C99.8665 63.7756 100.085 62.821 100.523 62.0455C100.964 61.2666 101.557 60.6783 102.303 60.2805C103.052 59.8795 103.89 59.679 104.818 59.679C105.74 59.679 106.575 59.8795 107.324 60.2805C108.073 60.6783 108.668 61.2666 109.109 62.0455C109.549 62.821 109.77 63.7756 109.77 64.9091ZM106.926 64.9091C106.926 64.2992 106.845 63.7855 106.683 63.3679C106.523 62.947 106.286 62.6288 105.972 62.4134C105.66 62.1946 105.276 62.0852 104.818 62.0852C104.361 62.0852 103.975 62.1946 103.66 62.4134C103.348 62.6288 103.111 62.947 102.949 63.3679C102.79 63.7855 102.71 64.2992 102.71 64.9091C102.71 65.5189 102.79 66.0343 102.949 66.4553C103.111 66.8729 103.348 67.1911 103.66 67.4098C103.975 67.6252 104.361 67.733 104.818 67.733C105.276 67.733 105.66 67.6252 105.972 67.4098C106.286 67.1911 106.523 66.8729 106.683 66.4553C106.845 66.0343 106.926 65.5189 106.926 64.9091ZM116.054 66.6591V62.3636H118.798V70H116.193V68.5483H116.114C115.948 69.0355 115.658 69.4167 115.244 69.6918C114.829 69.9635 114.337 70.0994 113.767 70.0994C113.233 70.0994 112.766 69.9768 112.365 69.7315C111.967 69.4863 111.657 69.1482 111.435 68.7173C111.217 68.2865 111.106 67.7926 111.102 67.2358V62.3636H113.847V66.6591C113.85 67.0369 113.946 67.3336 114.135 67.549C114.327 67.7644 114.596 67.8722 114.94 67.8722C115.169 67.8722 115.366 67.8241 115.532 67.728C115.701 67.6286 115.83 67.4893 115.92 67.3104C116.013 67.1281 116.057 66.911 116.054 66.6591ZM122.322 70.1193C121.835 70.1193 121.404 70.0398 121.029 69.8807C120.658 69.7183 120.366 69.473 120.154 69.1449C119.942 68.8168 119.836 68.3991 119.836 67.892C119.836 67.4744 119.907 67.1181 120.05 66.8232C120.192 66.5249 120.391 66.2812 120.646 66.0923C120.902 65.9034 121.198 65.7592 121.536 65.6598C121.878 65.5604 122.246 65.4957 122.64 65.4659C123.068 65.4328 123.411 65.393 123.669 65.3466C123.931 65.2969 124.12 65.2289 124.236 65.1428C124.352 65.0533 124.41 64.9356 124.41 64.7898V64.7699C124.41 64.571 124.334 64.4186 124.181 64.3125C124.029 64.2064 123.833 64.1534 123.595 64.1534C123.333 64.1534 123.119 64.2114 122.953 64.3274C122.791 64.4401 122.693 64.6141 122.66 64.8494H120.134C120.168 64.3854 120.315 63.9579 120.577 63.5668C120.842 63.1723 121.228 62.8575 121.735 62.6222C122.242 62.3835 122.875 62.2642 123.634 62.2642C124.181 62.2642 124.672 62.3288 125.106 62.4581C125.54 62.584 125.91 62.7614 126.215 62.9901C126.52 63.2154 126.752 63.4806 126.911 63.7855C127.073 64.0871 127.154 64.4152 127.154 64.7699V70H124.589V68.9261H124.529C124.377 69.2112 124.191 69.4415 123.972 69.6172C123.757 69.7929 123.51 69.9205 123.232 70C122.957 70.0795 122.653 70.1193 122.322 70.1193ZM123.217 68.3892C123.426 68.3892 123.621 68.3461 123.803 68.2599C123.989 68.1738 124.14 68.0495 124.256 67.8871C124.372 67.7247 124.43 67.5275 124.43 67.2955V66.6591C124.357 66.6889 124.279 66.7171 124.196 66.7436C124.117 66.7701 124.03 66.795 123.938 66.8182C123.848 66.8414 123.752 66.8629 123.649 66.8828C123.55 66.9027 123.445 66.9209 123.336 66.9375C123.124 66.9706 122.95 67.0253 122.814 67.1016C122.682 67.1745 122.582 67.2656 122.516 67.375C122.453 67.4811 122.421 67.6004 122.421 67.733C122.421 67.9451 122.496 68.1075 122.645 68.2202C122.794 68.3329 122.985 68.3892 123.217 68.3892ZM132.145 70.1392C131.316 70.1392 130.607 69.9751 130.017 69.647C129.427 69.3156 128.974 68.8549 128.659 68.2649C128.345 67.6716 128.187 66.9839 128.187 66.2017C128.187 65.4195 128.345 64.7334 128.659 64.1435C128.974 63.5502 129.427 63.0895 130.017 62.7614C130.607 62.4299 131.316 62.2642 132.145 62.2642C132.894 62.2642 133.542 62.4001 134.088 62.6719C134.639 62.9403 135.065 63.3215 135.366 63.8153C135.668 64.3059 135.82 64.8826 135.824 65.5455H133.278C133.242 65.1444 133.126 64.8395 132.93 64.6307C132.738 64.4186 132.489 64.3125 132.184 64.3125C131.946 64.3125 131.737 64.3821 131.558 64.5213C131.379 64.6572 131.24 64.8643 131.14 65.1428C131.041 65.4179 130.991 65.7642 130.991 66.1818C130.991 66.5994 131.041 66.9474 131.14 67.2259C131.24 67.5009 131.379 67.7081 131.558 67.8473C131.737 67.9832 131.946 68.0511 132.184 68.0511C132.386 68.0511 132.565 68.0047 132.721 67.9119C132.877 67.8158 133.003 67.6766 133.099 67.4943C133.199 67.3087 133.258 67.0833 133.278 66.8182H135.824C135.814 67.491 135.659 68.0777 135.361 68.5781C135.063 69.0753 134.64 69.4598 134.093 69.7315C133.55 70.0033 132.9 70.1392 132.145 70.1392ZM139.422 68.1903L139.442 64.929H139.8L141.649 62.3636H144.731L141.629 66.3608H140.854L139.422 68.1903ZM136.956 70V59.8182H139.7V70H136.956ZM141.669 70L139.919 66.9773L141.709 65.0284L144.811 70H141.669Z" fill="#E6EDF3"/>
<path d="M147.359 70.1591C146.975 70.1591 146.645 70.0249 146.37 69.7564C146.098 69.4846 145.964 69.1548 145.967 68.767C145.964 68.3892 146.098 68.0661 146.37 67.7976C146.645 67.5291 146.975 67.3949 147.359 67.3949C147.724 67.3949 148.045 67.5291 148.324 67.7976C148.606 68.0661 148.748 68.3892 148.751 68.767C148.748 69.0256 148.68 69.2609 148.548 69.473C148.418 69.6818 148.249 69.8492 148.04 69.9751C147.832 70.0978 147.605 70.1591 147.359 70.1591ZM157.223 64.8494H154.697C154.684 64.6937 154.629 64.5594 154.533 64.4467C154.437 64.334 154.313 64.2479 154.161 64.1882C154.011 64.1252 153.846 64.0938 153.663 64.0938C153.428 64.0938 153.226 64.1368 153.057 64.223C152.888 64.3092 152.805 64.4318 152.808 64.5909C152.805 64.7036 152.853 64.808 152.952 64.9041C153.055 65.0002 153.252 65.0748 153.544 65.1278L155.095 65.4062C155.877 65.5488 156.459 65.7891 156.84 66.1271C157.225 66.4619 157.419 66.911 157.422 67.4744C157.419 68.018 157.256 68.4903 156.935 68.8913C156.616 69.2891 156.181 69.5973 155.627 69.8161C155.077 70.0315 154.449 70.1392 153.743 70.1392C152.576 70.1392 151.663 69.9006 151.004 69.4233C150.347 68.946 149.981 68.3163 149.905 67.5341H152.629C152.666 67.776 152.785 67.9633 152.987 68.0959C153.193 68.2251 153.451 68.2898 153.763 68.2898C154.015 68.2898 154.222 68.2467 154.384 68.1605C154.55 68.0743 154.634 67.9517 154.638 67.7926C154.634 67.6468 154.562 67.5308 154.419 67.4446C154.28 67.3584 154.061 67.2888 153.763 67.2358L152.411 66.9972C151.632 66.8613 151.048 66.6027 150.661 66.2216C150.273 65.8404 150.08 65.3499 150.084 64.75C150.08 64.2197 150.22 63.7706 150.501 63.4027C150.786 63.0315 151.192 62.7498 151.719 62.5575C152.25 62.362 152.878 62.2642 153.604 62.2642C154.707 62.2642 155.577 62.4929 156.214 62.9503C156.853 63.4077 157.19 64.0407 157.223 64.8494ZM161.218 65.7045V70H158.473V59.8182H161.118V63.8153H161.198C161.37 63.3281 161.657 62.9486 162.058 62.6768C162.459 62.4018 162.941 62.2642 163.505 62.2642C164.045 62.2642 164.514 62.3868 164.912 62.6321C165.313 62.8774 165.623 63.2154 165.841 63.6463C166.063 64.0772 166.173 64.571 166.169 65.1278V70H163.425V65.7045C163.428 65.3267 163.334 65.0301 163.142 64.8146C162.953 64.5992 162.683 64.4915 162.331 64.4915C162.109 64.4915 161.914 64.5412 161.745 64.6406C161.579 64.7367 161.45 64.8759 161.357 65.0582C161.267 65.2372 161.221 65.4527 161.218 65.7045Z" fill="#58A6FF"/>
<path d="M102.304 77.0227V75.5526H102.29C102.252 75.6449 102.197 75.7277 102.126 75.8011C102.056 75.8733 101.971 75.9308 101.871 75.9734C101.771 76.0148 101.658 76.0355 101.53 76.0355C101.336 76.0355 101.157 75.9846 100.994 75.8828C100.831 75.781 100.701 75.6265 100.603 75.4194C100.506 75.2122 100.457 74.9512 100.457 74.6364C100.457 74.3073 100.508 74.0398 100.61 73.8338C100.713 73.6278 100.846 73.4769 101.008 73.381C101.171 73.2852 101.343 73.2372 101.523 73.2372C101.658 73.2372 101.776 73.2609 101.878 73.3082C101.98 73.3544 102.065 73.4165 102.133 73.4947C102.202 73.5716 102.254 73.6562 102.29 73.7486H102.311V73.2727H103.284V77.0227H102.304ZM101.892 75.2827C101.982 75.2827 102.059 75.2566 102.123 75.2045C102.188 75.1513 102.238 75.0767 102.272 74.9808C102.307 74.8838 102.325 74.7689 102.325 74.6364C102.325 74.5014 102.307 74.386 102.272 74.2901C102.238 74.1931 102.188 74.1191 102.123 74.0682C102.059 74.0161 101.982 73.9901 101.892 73.9901C101.802 73.9901 101.725 74.0161 101.661 74.0682C101.598 74.1191 101.55 74.1931 101.516 74.2901C101.482 74.386 101.466 74.5014 101.466 74.6364C101.466 74.7713 101.482 74.8873 101.516 74.9844C101.55 75.0803 101.598 75.1542 101.661 75.2063C101.725 75.2572 101.802 75.2827 101.892 75.2827ZM105.548 74.8068V73.2727H106.528V76H105.598V75.4815H105.57C105.51 75.6555 105.407 75.7917 105.259 75.8899C105.111 75.987 104.935 76.0355 104.732 76.0355C104.541 76.0355 104.374 75.9917 104.231 75.9041C104.089 75.8165 103.978 75.6958 103.899 75.5419C103.821 75.388 103.781 75.2116 103.78 75.0128V73.2727H104.76V74.8068C104.761 74.9418 104.795 75.0477 104.863 75.1246C104.932 75.2016 105.027 75.2401 105.151 75.2401C105.232 75.2401 105.303 75.2229 105.362 75.1886C105.422 75.1531 105.468 75.1033 105.5 75.0394C105.533 74.9743 105.549 74.8968 105.548 74.8068ZM107.787 76.0426C107.613 76.0426 107.459 76.0142 107.325 75.9574C107.193 75.8994 107.088 75.8118 107.013 75.6946C106.937 75.5774 106.899 75.4283 106.899 75.2472C106.899 75.098 106.925 74.9708 106.975 74.8654C107.026 74.7589 107.097 74.6719 107.188 74.6044C107.28 74.5369 107.386 74.4854 107.506 74.4499C107.628 74.4144 107.76 74.3913 107.9 74.3807C108.053 74.3688 108.176 74.3546 108.268 74.3381C108.362 74.3203 108.429 74.296 108.47 74.2653C108.512 74.2333 108.533 74.1913 108.533 74.1392V74.1321C108.533 74.0611 108.505 74.0066 108.451 73.9688C108.396 73.9309 108.327 73.9119 108.241 73.9119C108.148 73.9119 108.072 73.9326 108.012 73.9741C107.954 74.0143 107.919 74.0765 107.908 74.1605H107.006C107.017 73.9948 107.07 73.8421 107.164 73.7024C107.258 73.5616 107.396 73.4491 107.577 73.3651C107.758 73.2798 107.985 73.2372 108.256 73.2372C108.451 73.2372 108.626 73.2603 108.781 73.3065C108.936 73.3514 109.068 73.4148 109.177 73.4964C109.286 73.5769 109.369 73.6716 109.426 73.7805C109.484 73.8883 109.513 74.0054 109.513 74.1321V76H108.597V75.6165H108.575C108.521 75.7183 108.454 75.8005 108.376 75.8633C108.299 75.926 108.211 75.9716 108.112 76C108.014 76.0284 107.905 76.0426 107.787 76.0426ZM108.106 75.4247C108.181 75.4247 108.251 75.4093 108.316 75.3786C108.382 75.3478 108.436 75.3034 108.478 75.2454C108.519 75.1874 108.54 75.117 108.54 75.0341V74.8068C108.514 74.8175 108.486 74.8275 108.456 74.837C108.428 74.8465 108.397 74.8554 108.364 74.8636C108.332 74.8719 108.298 74.8796 108.261 74.8867C108.225 74.8938 108.188 74.9003 108.149 74.9062C108.073 74.9181 108.011 74.9376 107.963 74.9648C107.915 74.9909 107.88 75.0234 107.856 75.0625C107.834 75.1004 107.822 75.143 107.822 75.1903C107.822 75.2661 107.849 75.3241 107.902 75.3643C107.956 75.4046 108.024 75.4247 108.106 75.4247ZM111.295 76.0497C110.999 76.0497 110.746 75.9911 110.535 75.8739C110.324 75.7556 110.163 75.591 110.05 75.3803C109.938 75.1684 109.882 74.9228 109.882 74.6435C109.882 74.3641 109.938 74.1191 110.05 73.9084C110.163 73.6965 110.324 73.532 110.535 73.4148C110.746 73.2964 110.999 73.2372 111.295 73.2372C111.562 73.2372 111.794 73.2857 111.989 73.3828C112.186 73.4787 112.338 73.6148 112.445 73.7912C112.553 73.9664 112.608 74.1723 112.609 74.4091H111.7C111.687 74.2659 111.645 74.157 111.575 74.0824C111.507 74.0066 111.418 73.9688 111.309 73.9688C111.224 73.9688 111.149 73.9936 111.085 74.0433C111.021 74.0919 110.972 74.1658 110.936 74.2653C110.901 74.3635 110.883 74.4872 110.883 74.6364C110.883 74.7855 110.901 74.9098 110.936 75.0092C110.972 75.1075 111.021 75.1815 111.085 75.2312C111.149 75.2797 111.224 75.304 111.309 75.304C111.381 75.304 111.445 75.2874 111.501 75.2543C111.557 75.2199 111.602 75.1702 111.636 75.1051C111.671 75.0388 111.693 74.9583 111.7 74.8636H112.609C112.605 75.1039 112.55 75.3134 112.444 75.4922C112.337 75.6697 112.186 75.8071 111.991 75.9041C111.797 76.0012 111.565 76.0497 111.295 76.0497ZM113.894 75.3537L113.901 74.1889H114.029L114.689 73.2727H115.79L114.682 74.7003H114.405L113.894 75.3537ZM113.013 76V72.3636H113.993V76H113.013ZM114.696 76L114.071 74.9205L114.711 74.2244L115.819 76H114.696ZM118.803 77.0227V75.5526H118.789C118.751 75.6449 118.696 75.7277 118.625 75.8011C118.556 75.8733 118.47 75.9308 118.37 75.9734C118.27 76.0148 118.157 76.0355 118.029 76.0355C117.835 76.0355 117.656 75.9846 117.493 75.8828C117.33 75.781 117.2 75.6265 117.102 75.4194C117.005 75.2122 116.956 74.9512 116.956 74.6364C116.956 74.3073 117.007 74.0398 117.109 73.8338C117.212 73.6278 117.345 73.4769 117.507 73.381C117.67 73.2852 117.842 73.2372 118.022 73.2372C118.157 73.2372 118.275 73.2609 118.377 73.3082C118.479 73.3544 118.564 73.4165 118.632 73.4947C118.701 73.5716 118.753 73.6562 118.789 73.7486H118.81V73.2727H119.783V77.0227H118.803ZM118.391 75.2827C118.481 75.2827 118.558 75.2566 118.622 75.2045C118.687 75.1513 118.737 75.0767 118.771 74.9808C118.806 74.8838 118.824 74.7689 118.824 74.6364C118.824 74.5014 118.806 74.386 118.771 74.2901C118.737 74.1931 118.687 74.1191 118.622 74.0682C118.558 74.0161 118.481 73.9901 118.391 73.9901C118.301 73.9901 118.224 74.0161 118.16 74.0682C118.097 74.1191 118.049 74.1931 118.015 74.2901C117.981 74.386 117.965 74.5014 117.965 74.6364C117.965 74.7713 117.981 74.8873 118.015 74.9844C118.049 75.0803 118.097 75.1542 118.16 75.2063C118.224 75.2572 118.301 75.2827 118.391 75.2827ZM122.047 74.8068V73.2727H123.027V76H122.097V75.4815H122.069C122.009 75.6555 121.906 75.7917 121.758 75.8899C121.61 75.987 121.434 76.0355 121.231 76.0355C121.04 76.0355 120.873 75.9917 120.73 75.9041C120.588 75.8165 120.477 75.6958 120.398 75.5419C120.32 75.388 120.28 75.2116 120.279 75.0128V73.2727H121.259V74.8068C121.26 74.9418 121.294 75.0477 121.362 75.1246C121.431 75.2016 121.526 75.2401 121.65 75.2401C121.731 75.2401 121.802 75.2229 121.861 75.1886C121.921 75.1531 121.967 75.1033 121.999 75.0394C122.033 74.9743 122.049 74.8968 122.047 74.8068ZM124.286 76.0426C124.112 76.0426 123.958 76.0142 123.824 75.9574C123.692 75.8994 123.587 75.8118 123.512 75.6946C123.436 75.5774 123.398 75.4283 123.398 75.2472C123.398 75.098 123.424 74.9708 123.474 74.8654C123.525 74.7589 123.596 74.6719 123.688 74.6044C123.779 74.5369 123.885 74.4854 124.005 74.4499C124.127 74.4144 124.259 74.3913 124.4 74.3807C124.552 74.3688 124.675 74.3546 124.767 74.3381C124.861 74.3203 124.928 74.296 124.969 74.2653C125.011 74.2333 125.032 74.1913 125.032 74.1392V74.1321C125.032 74.0611 125.004 74.0066 124.95 73.9688C124.895 73.9309 124.826 73.9119 124.74 73.9119C124.647 73.9119 124.571 73.9326 124.511 73.9741C124.453 74.0143 124.418 74.0765 124.407 74.1605H123.505C123.516 73.9948 123.569 73.8421 123.663 73.7024C123.757 73.5616 123.895 73.4491 124.076 73.3651C124.257 73.2798 124.484 73.2372 124.755 73.2372C124.95 73.2372 125.125 73.2603 125.28 73.3065C125.435 73.3514 125.567 73.4148 125.676 73.4964C125.785 73.5769 125.868 73.6716 125.925 73.7805C125.983 73.8883 126.012 74.0054 126.012 74.1321V76H125.096V75.6165H125.074C125.02 75.7183 124.953 75.8005 124.875 75.8633C124.798 75.926 124.71 75.9716 124.611 76C124.513 76.0284 124.404 76.0426 124.286 76.0426ZM124.605 75.4247C124.68 75.4247 124.75 75.4093 124.815 75.3786C124.881 75.3478 124.935 75.3034 124.977 75.2454C125.018 75.1874 125.039 75.117 125.039 75.0341V74.8068C125.013 74.8175 124.985 74.8275 124.955 74.837C124.927 74.8465 124.896 74.8554 124.863 74.8636C124.831 74.8719 124.797 74.8796 124.76 74.8867C124.724 74.8938 124.687 74.9003 124.648 74.9062C124.572 74.9181 124.51 74.9376 124.462 74.9648C124.414 74.9909 124.379 75.0234 124.355 75.0625C124.333 75.1004 124.321 75.143 124.321 75.1903C124.321 75.2661 124.348 75.3241 124.401 75.3643C124.455 75.4046 124.523 75.4247 124.605 75.4247ZM127.794 76.0497C127.498 76.0497 127.245 75.9911 127.034 75.8739C126.823 75.7556 126.662 75.591 126.549 75.3803C126.437 75.1684 126.381 74.9228 126.381 74.6435C126.381 74.3641 126.437 74.1191 126.549 73.9084C126.662 73.6965 126.823 73.532 127.034 73.4148C127.245 73.2964 127.498 73.2372 127.794 73.2372C128.061 73.2372 128.293 73.2857 128.488 73.3828C128.685 73.4787 128.837 73.6148 128.945 73.7912C129.052 73.9664 129.107 74.1723 129.108 74.4091H128.199C128.186 74.2659 128.144 74.157 128.074 74.0824C128.006 74.0066 127.917 73.9688 127.808 73.9688C127.723 73.9688 127.648 73.9936 127.584 74.0433C127.521 74.0919 127.471 74.1658 127.435 74.2653C127.4 74.3635 127.382 74.4872 127.382 74.6364C127.382 74.7855 127.4 74.9098 127.435 75.0092C127.471 75.1075 127.521 75.1815 127.584 75.2312C127.648 75.2797 127.723 75.304 127.808 75.304C127.88 75.304 127.944 75.2874 128 75.2543C128.056 75.2199 128.101 75.1702 128.135 75.1051C128.17 75.0388 128.192 74.9583 128.199 74.8636H129.108C129.104 75.1039 129.049 75.3134 128.943 75.4922C128.836 75.6697 128.685 75.8071 128.49 75.9041C128.296 76.0012 128.064 76.0497 127.794 76.0497ZM130.393 75.3537L130.4 74.1889H130.528L131.188 73.2727H132.289L131.181 74.7003H130.904L130.393 75.3537ZM129.512 76V72.3636H130.492V76H129.512ZM131.195 76L130.57 74.9205L131.21 74.2244L132.318 76H131.195ZM133.496 75.5028L133.482 75.7017C133.47 75.8722 133.442 76.0355 133.397 76.1918C133.353 76.348 133.306 76.4865 133.256 76.6072C133.208 76.728 133.169 76.8215 133.141 76.8878H132.537C132.556 76.8215 132.583 76.7256 132.617 76.6001C132.653 76.4759 132.685 76.335 132.713 76.1776C132.743 76.0213 132.758 75.8627 132.758 75.7017V75.5028H133.496ZM135.446 77.0227C135.333 77.0227 135.226 77.0138 135.124 76.9961C135.023 76.9795 134.933 76.9564 134.856 76.9268L135.069 76.2308C135.15 76.2592 135.223 76.2776 135.29 76.2859C135.357 76.2942 135.414 76.2894 135.462 76.2717C135.51 76.2539 135.545 76.2202 135.566 76.1705L135.588 76.1207L134.629 73.2727H135.652L136.092 75.1619H136.12L136.568 73.2727H137.598L136.603 76.2273C136.554 76.3776 136.482 76.5125 136.387 76.6321C136.293 76.7528 136.17 76.8481 136.017 76.918C135.865 76.9878 135.674 77.0227 135.446 77.0227ZM139.107 76.0497C138.811 76.0497 138.558 75.9911 138.347 75.8739C138.137 75.7556 137.975 75.591 137.863 75.3803C137.75 75.1684 137.694 74.9228 137.694 74.6435C137.694 74.3641 137.75 74.1191 137.863 73.9084C137.975 73.6965 138.137 73.532 138.347 73.4148C138.558 73.2964 138.811 73.2372 139.107 73.2372C139.403 73.2372 139.657 73.2964 139.867 73.4148C140.078 73.532 140.24 73.6965 140.352 73.9084C140.465 74.1191 140.521 74.3641 140.521 74.6435C140.521 74.9228 140.465 75.1684 140.352 75.3803C140.24 75.591 140.078 75.7556 139.867 75.8739C139.657 75.9911 139.403 76.0497 139.107 76.0497ZM139.115 75.3253C139.197 75.3253 139.269 75.2975 139.329 75.2418C139.39 75.1862 139.436 75.1069 139.47 75.0039C139.503 74.9009 139.519 74.7784 139.519 74.6364C139.519 74.4931 139.503 74.3706 139.47 74.2688C139.436 74.1658 139.39 74.0865 139.329 74.0309C139.269 73.9753 139.197 73.9474 139.115 73.9474C139.027 73.9474 138.952 73.9753 138.889 74.0309C138.826 74.0865 138.778 74.1658 138.745 74.2688C138.712 74.3706 138.695 74.4931 138.695 74.6364C138.695 74.7784 138.712 74.9009 138.745 75.0039C138.778 75.1069 138.826 75.1862 138.889 75.2418C138.952 75.2975 139.027 75.3253 139.115 75.3253ZM142.687 74.8068V73.2727H143.667V76H142.737V75.4815H142.708C142.649 75.6555 142.546 75.7917 142.398 75.8899C142.25 75.987 142.074 76.0355 141.87 76.0355C141.68 76.0355 141.513 75.9917 141.369 75.9041C141.227 75.8165 141.117 75.6958 141.037 75.5419C140.959 75.388 140.92 75.2116 140.919 75.0128V73.2727H141.899V74.8068C141.9 74.9418 141.934 75.0477 142.002 75.1246C142.07 75.2016 142.166 75.2401 142.289 75.2401C142.371 75.2401 142.441 75.2229 142.501 75.1886C142.561 75.1531 142.607 75.1033 142.639 75.0394C142.672 74.9743 142.688 74.8968 142.687 74.8068ZM145.048 72.3636V72.7898C145.048 72.9058 145.025 73.0218 144.977 73.1378C144.931 73.2526 144.872 73.3597 144.8 73.4592C144.729 73.5574 144.655 73.6397 144.58 73.706L144.175 73.5C144.225 73.4148 144.269 73.3159 144.308 73.2035C144.347 73.091 144.367 72.9531 144.367 72.7898V72.3636H145.048ZM145.416 76V73.2727H146.367V73.7912H146.396C146.445 73.5994 146.524 73.4592 146.632 73.3704C146.741 73.2816 146.868 73.2372 147.014 73.2372C147.056 73.2372 147.098 73.2408 147.14 73.2479C147.182 73.2538 147.223 73.2627 147.262 73.2745V74.1108C147.214 74.0942 147.154 74.0818 147.083 74.0735C147.012 74.0652 146.951 74.0611 146.9 74.0611C146.804 74.0611 146.718 74.083 146.641 74.1268C146.565 74.1694 146.505 74.2298 146.461 74.3079C146.418 74.3848 146.396 74.4754 146.396 74.5795V76H145.416ZM148.734 76.0497C148.443 76.0497 148.192 75.9941 147.981 75.8828C147.772 75.7704 147.61 75.6094 147.497 75.3999C147.384 75.1892 147.328 74.937 147.328 74.6435C147.328 74.3617 147.385 74.1155 147.498 73.9048C147.612 73.6941 147.772 73.5302 147.979 73.413C148.187 73.2958 148.431 73.2372 148.713 73.2372C148.919 73.2372 149.105 73.2692 149.272 73.3331C149.439 73.397 149.582 73.4899 149.7 73.6119C149.818 73.7326 149.91 73.8794 149.973 74.0522C150.037 74.225 150.069 74.4197 150.069 74.6364V74.8636H147.633V74.3239H149.167C149.166 74.2457 149.146 74.1771 149.107 74.1179C149.069 74.0575 149.018 74.0108 148.953 73.9776C148.889 73.9433 148.816 73.9261 148.734 73.9261C148.655 73.9261 148.582 73.9433 148.516 73.9776C148.449 74.0108 148.396 74.0569 148.356 74.1161C148.317 74.1753 148.296 74.2446 148.294 74.3239V74.9062C148.294 74.9938 148.312 75.072 148.349 75.1406C148.386 75.2093 148.438 75.2631 148.507 75.3022C148.575 75.3413 148.658 75.3608 148.755 75.3608C148.823 75.3608 148.884 75.3513 148.94 75.3324C148.997 75.3134 149.045 75.2862 149.086 75.2507C149.126 75.214 149.156 75.1702 149.174 75.1193H150.069C150.039 75.3087 149.966 75.4732 149.851 75.6129C149.736 75.7514 149.584 75.8591 149.395 75.9361C149.206 76.0118 148.986 76.0497 148.734 76.0497ZM151.465 76V73.2727H152.445V76H151.465ZM151.955 72.9886C151.823 72.9886 151.709 72.9448 151.615 72.8572C151.52 72.7696 151.472 72.6643 151.472 72.5412C151.472 72.4181 151.52 72.3127 151.615 72.2251C151.709 72.1375 151.823 72.0938 151.955 72.0938C152.089 72.0938 152.203 72.1375 152.296 72.2251C152.391 72.3127 152.438 72.4181 152.438 72.5412C152.438 72.6643 152.391 72.7696 152.296 72.8572C152.203 72.9448 152.089 72.9886 151.955 72.9886ZM153.925 74.4659V76H152.945V73.2727H153.875V73.7912H153.904C153.963 73.6184 154.067 73.4828 154.216 73.3846C154.367 73.2863 154.542 73.2372 154.742 73.2372C154.935 73.2372 155.102 73.2816 155.244 73.3704C155.387 73.458 155.498 73.5787 155.576 73.7326C155.656 73.8865 155.695 74.0623 155.693 74.2599V76H154.713V74.4659C154.715 74.331 154.68 74.225 154.61 74.1481C154.542 74.0711 154.446 74.0327 154.323 74.0327C154.242 74.0327 154.172 74.0504 154.111 74.0859C154.052 74.1203 154.007 74.17 153.975 74.2351C153.943 74.299 153.926 74.3759 153.925 74.4659ZM157.314 72.3636L157.221 74.8636H156.412L156.319 72.3636H157.314ZM156.816 76.0568C156.679 76.0568 156.561 76.0089 156.463 75.913C156.366 75.8159 156.318 75.6982 156.319 75.5597C156.318 75.4247 156.366 75.3093 156.463 75.2134C156.561 75.1175 156.679 75.0696 156.816 75.0696C156.947 75.0696 157.062 75.1175 157.161 75.2134C157.262 75.3093 157.312 75.4247 157.314 75.5597C157.312 75.652 157.288 75.736 157.241 75.8118C157.195 75.8864 157.134 75.9461 157.06 75.9911C156.985 76.0349 156.904 76.0568 156.816 76.0568Z" fill="#727272"/>
</svg>
